<svg id="Слой_1" data-name="Слой 1" xmlns="http://www.w3.org/2000/svg" viewBox="0 0 360.05 450"><title>mthr</title><path d="M424.13,92.64c-7-5.34-17.55-4.13-25.57,0-37.47,19.26-75.13,8.81-118,6C275.91,76.46,273,30.74,250,25c-23,5.74-25.91,51.46-30.55,73.65-42.88,2.8-80.54,13.25-118-6-8-4.13-18.6-5.34-25.57,0l-5.9,2c.21,7.75.45,10.19,3.94,14,5.89,12.38,22.11,4.26,34.71,9.92,13.75,6.18,26.77,19.6,41.31,26.06,19.25,8.57,43.17,14.32,59.68,24.16,3.95,22.36-2,40-6.62,60.68-.48,2.13-1.05,6.63-1.41,9.39L197,276.78a28.87,28.87,0,0,1-.48,5.41c-4.52,24,2.3,53-1.91,81.17-2.22,12.59-2.44,11.24-5.27,27.12-2.93,16.19-5.22,36.91-6.68,68.68,0,1.33.08,14.5.08,15.84,31.61,0,40.28-.08,67.3-.08s35.69.08,67.3.08c0-1.34.08-14.51.08-15.84-1.46-31.77-3.75-52.49-6.68-68.68-2.83-15.88-3.05-14.53-5.27-27.12-4.21-28.18,2.61-57.2-1.91-81.17a28.87,28.87,0,0,1-.48-5.41l-4.62-37.9c-.36-2.76-.93-7.26-1.41-9.39-4.61-20.7-10.57-38.32-6.62-60.68,16.51-9.84,40.43-15.59,59.68-24.16,14.54-6.46,27.56-19.88,41.31-26.06,12.6-5.66,28.82,2.46,34.71-9.92,3.49-3.84,3.73-6.28,3.94-14Z" transform="translate(-69.97 -25)" style="fill:#b3b3b3"/></svg>